{
  "asset": { "version": "2.0", "generator": "hand-written SuGar test fixture" },
  "scene": 0,
  "scenes": [ { "nodes": [ 0 ] } ],
  "nodes": [
    { "name": "Spinner" }
  ],
  "buffers": [
    {
      "byteLength": 64,
      "uri": "data:application/octet-stream;base64,"
    }
  ],
  "bufferViews": [
    { "buffer": 0, "byteOffset": 0,  "byteLength": 8 },
    { "buffer": 0, "byteOffset": 8,  "byteLength": 32 },
    { "buffer": 0, "byteOffset": 40, "byteLength": 24 }
  ],
  "accessors": [
    { "bufferView": 0, "componentType": 5126, "count": 2, "type": "SCALAR", "min": [ 0.0 ], "max": [ 1.0 ] },
    { "bufferView": 1, "componentType": 5126, "count": 2, "type": "VEC4" },
    { "bufferView": 2, "componentType": 5126, "count": 2, "type": "VEC3" }
  ],
  "animations": [
    {
      "name": "Spin",
      "samplers": [
        { "input": 0, "output": 1, "interpolation": "LINEAR" },
        { "input": 0, "output": 2, "interpolation": "LINEAR" }
      ],
      "channels": [
        { "sampler": 0, "target": { "node": 0, "path": "rotation" } },
        { "sampler": 1, "target": { "node": 0, "path": "translation" } }
      ]
    },
    {
      "name": "Jump",
      "samplers": [
        { "input": 0, "output": 2, "interpolation": "STEP" }
      ],
      "channels": [
        { "sampler": 0, "target": { "node": 0, "path": "translation" } }
      ]
    }
  ]
}
