{
  "asset": {
    "version": "2.0",
    "generator": "hand-written SuGar test fixture"
  },
  "scene": 0,
  "scenes": [
    {
      "nodes": [
        0,
        1
      ]
    }
  ],
  "nodes": [
    {
      "name": "Bar",
      "mesh": 0,
      "skin": 0
    },
    {
      "name": "Root",
      "children": [
        2
      ]
    },
    {
      "name": "Tip",
      "translation": [
        0.0,
        2.0,
        0.0
      ]
    }
  ],
  "skins": [
    {
      "name": "Armature",
      "joints": [
        1,
        2
      ],
      "inverseBindMatrices": 0
    }
  ],
  "meshes": [
    {
      "primitives": [
        {
          "attributes": {
            "POSITION": 1,
            "NORMAL": 2,
            "TEXCOORD_0": 3,
            "JOINTS_0": 4,
            "WEIGHTS_0": 5
          },
          "indices": 6,
          "mode": 4
        }
      ]
    }
  ],
  "animations": [
    {
      "name": "Bend",
      "samplers": [
        {
          "input": 7,
          "output": 8,
          "interpolation": "LINEAR"
        }
      ],
      "channels": [
        {
          "sampler": 0,
          "target": {
            "node": 2,
            "path": "rotation"
          }
        }
      ]
    }
  ],
  "buffers": [
    {
      "byteLength": 908,
      "uri": "data:application/octet-stream;base64,"
    }
  ],
  "bufferViews": [
    {
      "buffer": 0,
      "byteOffset": 0,
      "byteLength": 128
    },
    {
      "buffer": 0,
      "byteOffset": 128,
      "byteLength": 144
    },
    {
      "buffer": 0,
      "byteOffset": 272,
      "byteLength": 144
    },
    {
      "buffer": 0,
      "byteOffset": 416,
      "byteLength": 96
    },
    {
      "buffer": 0,
      "byteOffset": 512,
      "byteLength": 48
    },
    {
      "buffer": 0,
      "byteOffset": 560,
      "byteLength": 192
    },
    {
      "buffer": 0,
      "byteOffset": 752,
      "byteLength": 96
    },
    {
      "buffer": 0,
      "byteOffset": 848,
      "byteLength": 12
    },
    {
      "buffer": 0,
      "byteOffset": 860,
      "byteLength": 48
    }
  ],
  "accessors": [
    {
      "bufferView": 0,
      "componentType": 5126,
      "count": 2,
      "type": "MAT4"
    },
    {
      "bufferView": 1,
      "componentType": 5126,
      "count": 12,
      "type": "VEC3",
      "min": [
        -0.5,
        0.0,
        -0.5
      ],
      "max": [
        0.5,
        4.0,
        0.5
      ]
    },
    {
      "bufferView": 2,
      "componentType": 5126,
      "count": 12,
      "type": "VEC3"
    },
    {
      "bufferView": 3,
      "componentType": 5126,
      "count": 12,
      "type": "VEC2"
    },
    {
      "bufferView": 4,
      "componentType": 5121,
      "count": 12,
      "type": "VEC4"
    },
    {
      "bufferView": 5,
      "componentType": 5126,
      "count": 12,
      "type": "VEC4"
    },
    {
      "bufferView": 6,
      "componentType": 5123,
      "count": 48,
      "type": "SCALAR"
    },
    {
      "bufferView": 7,
      "componentType": 5126,
      "count": 3,
      "type": "SCALAR",
      "min": [
        0.0
      ],
      "max": [
        2.0
      ]
    },
    {
      "bufferView": 8,
      "componentType": 5126,
      "count": 3,
      "type": "VEC4"
    }
  ]
}
