{
  "asset": { "version": "2.0", "generator": "hand-written SuGar test fixture" },
  "scene": 0,
  "scenes": [ { "nodes": [ 0, 1 ] } ],
  "nodes": [
    { "name": "Bar", "mesh": 0, "skin": 0 },
    { "name": "Root", "children": [ 2 ] },
    { "name": "Tip", "translation": [ 0.0, 2.0, 0.0 ] }
  ],
  "skins": [
    {
      "name": "Armature",
      "joints": [ 1, 2 ],
      "inverseBindMatrices": 0
    }
  ],
  "meshes": [
    {
      "primitives": [
        {
          "attributes": { "POSITION": 1, "JOINTS_0": 2, "WEIGHTS_0": 3 },
          "indices": 4,
          "mode": 4
        }
      ]
    }
  ],
  "buffers": [
    {
      "byteLength": 230,
      "uri": "data:application/octet-stream;base64,"
    }
  ],
  "bufferViews": [
    { "buffer": 0, "byteOffset": 0,   "byteLength": 128 },
    { "buffer": 0, "byteOffset": 128, "byteLength": 36 },
    { "buffer": 0, "byteOffset": 164, "byteLength": 12 },
    { "buffer": 0, "byteOffset": 176, "byteLength": 48 },
    { "buffer": 0, "byteOffset": 224, "byteLength": 6 }
  ],
  "accessors": [
    { "bufferView": 0, "componentType": 5126, "count": 2, "type": "MAT4" },
    { "bufferView": 1, "componentType": 5126, "count": 3, "type": "VEC3", "min": [ 0.0, 0.0, 0.0 ], "max": [ 1.0, 2.0, 0.0 ] },
    { "bufferView": 2, "componentType": 5121, "count": 3, "type": "VEC4" },
    { "bufferView": 3, "componentType": 5126, "count": 3, "type": "VEC4" },
    { "bufferView": 4, "componentType": 5123, "count": 3, "type": "SCALAR" }
  ]
}
